<?xml version="1.0" standalone="no"?>
<!DOCTYPE svg PUBLIC "-//W3C//DTD SVG 20010904//EN"
 "http://www.w3.org/TR/2001/REC-SVG-20010904/DTD/svg10.dtd">
<svg version="1.0" xmlns="http://www.w3.org/2000/svg"
 width="67.500000pt" height="68.000000pt" viewBox="0 0 240.000000 240.000000"
 preserveAspectRatio="xMidYMid meet">

<g transform="translate(0.000000,240.000000) scale(0.100000,-0.100000)"
fill="#3c77ad" stroke="none">
<path d="M1151 2193 c-43 -17 -761 -439 -785 -461 -56 -53 -56 -53 -56 -534 0
-410 2 -446 19 -484 10 -23 32 -50 47 -61 16 -11 196 -116 399 -234 359 -208
372 -214 425 -214 54 0 65 6 444 225 331 191 393 231 415 264 l26 40 3 443 c2
288 -1 457 -8 483 -6 21 -23 52 -39 67 -23 23 -668 402 -778 457 -31 16 -84
20 -112 9z m202 -422 c132 -38 253 -120 328 -224 36 -49 40 -44 -106 -131
-101 -61 -111 -65 -123 -49 -66 91 -150 136 -253 136 -57 0 -80 -6 -133 -32
-66 -32 -96 -63 -137 -141 -20 -37 -24 -59 -23 -125 1 -94 24 -151 82 -207 64
-62 116 -83 207 -83 96 0 156 25 221 92 l41 42 114 -66 c63 -36 120 -71 127
-77 24 -23 -96 -154 -193 -212 -214 -125 -481 -107 -671 44 -57 45 -129 134
-163 200 -33 64 -61 186 -61 261 0 71 28 189 62 259 51 107 158 216 268 272
116 60 287 77 413 41z"/>
</g>
</svg>
