<?xml version="1.0" standalone="no"?>
<!DOCTYPE svg PUBLIC "-//W3C//DTD SVG 20010904//EN"
 "http://www.w3.org/TR/2001/REC-SVG-20010904/DTD/svg10.dtd">
<svg version="1.0" xmlns="http://www.w3.org/2000/svg"
 width="67.500000pt" height="68.000000pt" viewBox="0 0 240.000000 240.000000"
 preserveAspectRatio="xMidYMid meet">

<g transform="translate(0.000000,240.000000) scale(0.100000,-0.100000)"
fill="#3c77ad" stroke="none">
<path d="M1151 2193 c-43 -17 -761 -439 -785 -461 -56 -53 -56 -53 -56 -534 0
-410 2 -446 19 -484 10 -23 32 -50 47 -61 16 -11 196 -116 399 -234 359 -208
372 -214 425 -214 53 0 66 6 425 214 204 118 382 222 397 233 14 10 36 38 48
62 20 43 21 56 21 475 0 276 -4 444 -11 470 -6 22 -23 53 -39 68 -23 23 -668
402 -778 457 -31 16 -84 20 -112 9z m202 -422 c132 -38 253 -120 328 -224 36
-49 40 -44 -106 -131 -101 -61 -111 -65 -123 -49 -66 91 -150 136 -253 136
-57 0 -80 -6 -133 -32 -66 -32 -96 -63 -137 -141 -20 -37 -24 -59 -23 -125 1
-94 24 -151 82 -207 64 -62 116 -83 207 -83 96 0 156 25 221 92 l41 42 114
-66 c63 -36 120 -71 127 -77 24 -23 -96 -154 -193 -212 -214 -125 -481 -107
-671 44 -57 45 -129 134 -163 200 -33 64 -61 186 -61 261 0 71 28 189 62 259
51 107 158 216 268 272 116 60 287 77 413 41z m445 -448 c3 -32 5 -33 48 -33
42 0 44 1 44 30 0 25 4 30 25 30 21 0 25 -5 25 -30 0 -25 4 -30 25 -30 20 0
25 -5 25 -25 0 -20 -5 -25 -25 -25 -21 0 -25 -5 -25 -30 0 -27 3 -30 30 -30
25 0 30 -4 30 -25 0 -21 -5 -25 -29 -25 -23 0 -30 -5 -33 -22 -2 -17 -10 -23
-28 -23 -18 0 -26 6 -28 23 -3 18 -10 22 -42 22 -32 0 -39 -4 -42 -22 -2 -17
-10 -23 -28 -23 -18 0 -26 6 -28 23 -3 16 -10 22 -28 22 -19 0 -24 5 -24 25 0
20 5 25 25 25 20 0 25 5 25 24 0 19 -6 25 -27 28 -22 2 -28 8 -28 28 0 20 6
26 28 28 22 3 27 8 27 31 0 34 8 43 35 39 15 -2 21 -12 23 -35z"/>
<path d="M1823 1242 c-16 -2 -23 -10 -23 -27 0 -44 10 -55 51 -55 39 0 39 0
39 39 0 41 -15 51 -67 43z"/>
</g>
</svg>
